<svg width="211" height="53" viewBox="0 0 211 53" fill="none" xmlns="http://www.w3.org/2000/svg">
<path d="M0.0329298 41V3.16H9.60293V33.3H24.3429V41H0.0329298ZM42.1152 41.44C39.4752 41.44 37.2936 41.275 35.5702 40.945C33.8469 40.615 32.4719 40.1017 31.4452 39.405C30.4552 38.6717 29.7036 37.7367 29.1902 36.6C28.7136 35.4633 28.4019 34.1067 28.2552 32.53C28.1452 30.9533 28.0902 29.12 28.0902 27.03C28.0902 24.5 28.2002 22.3183 28.4202 20.485C28.6769 18.6517 29.2269 17.1483 30.0702 15.975C30.9136 14.8017 32.2152 13.94 33.9752 13.39C35.7719 12.8033 38.1919 12.51 41.2352 12.51C43.6919 12.51 45.6902 12.6933 47.2302 13.06C48.7702 13.39 49.9802 13.9217 50.8602 14.655C51.7769 15.3517 52.4186 16.2683 52.7852 17.405C53.1886 18.5417 53.4452 19.9167 53.5552 21.53C53.6652 23.1067 53.7202 24.94 53.7202 27.03V29.175H36.8352C36.8352 30.4217 36.8902 31.43 37.0002 32.2C37.1102 32.9333 37.4036 33.4833 37.8802 33.85C38.3569 34.2167 39.0902 34.4733 40.0802 34.62C41.0702 34.73 42.4452 34.785 44.2052 34.785C44.9019 34.785 45.7269 34.7667 46.6802 34.73C47.6336 34.6933 48.6236 34.6383 49.6502 34.565C50.7136 34.4917 51.7036 34.4183 52.6202 34.345V40.505C51.8136 40.6883 50.8236 40.8533 49.6502 41C48.5136 41.1467 47.2852 41.2567 45.9652 41.33C44.6452 41.4033 43.3619 41.44 42.1152 41.44ZM45.4152 25.49V24.61C45.4152 23.29 45.3419 22.245 45.1952 21.475C45.0852 20.705 44.8652 20.1367 44.5352 19.77C44.2419 19.3667 43.8202 19.11 43.2702 19C42.7202 18.89 42.0236 18.835 41.1802 18.835C40.2269 18.835 39.4569 18.9083 38.8702 19.055C38.3202 19.165 37.8986 19.4217 37.6052 19.825C37.3119 20.2283 37.1102 20.815 37.0002 21.585C36.8902 22.355 36.8352 23.3633 36.8352 24.61H46.3502L45.4152 25.49ZM66.4605 41.44C64.7005 41.44 63.2155 41.165 62.0055 40.615C60.7955 40.065 59.8788 39.1667 59.2555 37.92C58.6688 36.6733 58.3755 35.0417 58.3755 33.025C58.3755 30.8983 58.6138 29.2117 59.0905 27.965C59.6038 26.6817 60.5021 25.765 61.7855 25.215C63.0688 24.665 64.8838 24.39 67.2305 24.39C67.5605 24.39 68.0188 24.4083 68.6055 24.445C69.2288 24.445 69.9255 24.4633 70.6955 24.5C71.4655 24.5 72.2355 24.5183 73.0055 24.555C73.7755 24.555 74.4721 24.5733 75.0955 24.61V23.565C75.0955 22.5017 75.0038 21.6767 74.8205 21.09C74.6738 20.5033 74.3621 20.0817 73.8855 19.825C73.4455 19.5317 72.7671 19.3667 71.8505 19.33C70.9338 19.2567 69.7238 19.22 68.2205 19.22C67.3771 19.22 66.4421 19.2383 65.4155 19.275C64.4255 19.3117 63.4355 19.3667 62.4455 19.44C61.4921 19.4767 60.6855 19.5317 60.0255 19.605V13.39C61.5288 13.1333 63.2155 12.9317 65.0855 12.785C66.9921 12.6017 68.9905 12.51 71.0805 12.51C73.4271 12.51 75.3705 12.6567 76.9105 12.95C78.4871 13.2433 79.7521 13.7017 80.7055 14.325C81.6588 14.9117 82.3555 15.6633 82.7955 16.58C83.2721 17.4967 83.5838 18.5783 83.7305 19.825C83.8771 21.0717 83.9505 22.4833 83.9505 24.06V41H75.4805L75.2605 37.7H74.8205C74.1238 38.8 73.3171 39.625 72.4005 40.175C71.4838 40.725 70.5121 41.0733 69.4855 41.22C68.4588 41.3667 67.4505 41.44 66.4605 41.44ZM70.6405 35.17C71.3005 35.17 71.8688 35.1333 72.3455 35.06C72.8588 34.95 73.2805 34.785 73.6105 34.565C73.9771 34.3083 74.2705 33.9967 74.4905 33.63C74.6738 33.2267 74.8205 32.7317 74.9305 32.145C75.0405 31.5583 75.0955 30.8617 75.0955 30.055V29.01H69.9805C69.0638 29.01 68.3671 29.0833 67.8905 29.23C67.4138 29.34 67.0838 29.6333 66.9005 30.11C66.7538 30.55 66.6805 31.2467 66.6805 32.2C66.6805 33.0067 66.7721 33.63 66.9555 34.07C67.1388 34.51 67.5055 34.8033 68.0555 34.95C68.6421 35.0967 69.5038 35.17 70.6405 35.17ZM90.7928 41V12.95H99.1528L99.3728 17.735H99.8678C100.381 16.3783 101.023 15.315 101.793 14.545C102.599 13.775 103.571 13.2433 104.708 12.95C105.844 12.6567 107.164 12.51 108.668 12.51V20.595C106.358 20.595 104.543 20.8883 103.223 21.475C101.903 22.0617 100.968 23.07 100.418 24.5C99.8678 25.8933 99.5928 27.855 99.5928 30.385V41H90.7928ZM113.351 41V12.95H121.711L121.931 16.36H122.426C122.976 15.4067 123.655 14.655 124.461 14.105C125.268 13.5183 126.185 13.115 127.211 12.895C128.238 12.6383 129.356 12.51 130.566 12.51C132.436 12.51 133.921 12.7483 135.021 13.225C136.158 13.7017 137.02 14.3983 137.606 15.315C138.193 16.2317 138.578 17.3683 138.761 18.725C138.981 20.0817 139.091 21.6583 139.091 23.455V41H130.236V26.15C130.236 24.6467 130.2 23.4733 130.126 22.63C130.053 21.75 129.888 21.1083 129.631 20.705C129.375 20.3017 128.971 20.0633 128.421 19.99C127.908 19.88 127.211 19.825 126.331 19.825C125.415 19.825 124.663 19.935 124.076 20.155C123.526 20.3383 123.105 20.6683 122.811 21.145C122.555 21.6217 122.371 22.3 122.261 23.18C122.188 24.0233 122.151 25.0867 122.151 26.37V41H113.351Z" fill="black"/>
<path d="M145.737 7.23V0.134998H154.812V7.23H145.737ZM145.847 41V12.95H154.757V41H145.847ZM164.444 41V19.66H159.274V12.95H164.444V11.025C164.444 8.89833 164.572 7.175 164.829 5.855C165.085 4.49833 165.544 3.435 166.204 2.665C166.864 1.895 167.78 1.345 168.954 1.015C170.164 0.648331 171.667 0.428331 173.464 0.354999C175.297 0.244998 177.479 0.189998 180.009 0.189998V6.24C178.505 6.24 177.295 6.27666 176.379 6.35C175.499 6.42333 174.839 6.58833 174.399 6.845C173.959 7.065 173.665 7.41333 173.519 7.89C173.409 8.33 173.354 8.97166 173.354 9.815V12.95H180.009V19.66H173.354V41H164.444ZM196.612 52.33C195.475 52.33 194.302 52.2933 193.092 52.22C191.882 52.1833 190.727 52.11 189.627 52C188.564 51.89 187.629 51.78 186.822 51.67V45.565C187.959 45.565 188.967 45.565 189.847 45.565C190.764 45.6017 191.589 45.62 192.322 45.62C193.092 45.62 193.807 45.62 194.467 45.62C196.19 45.62 197.547 45.5467 198.537 45.4C199.527 45.2533 200.242 44.9783 200.682 44.575C201.122 44.1717 201.397 43.5483 201.507 42.705C201.617 41.8983 201.672 40.835 201.672 39.515V37.26H201.232C200.719 38.14 200.077 38.855 199.307 39.405C198.537 39.9183 197.639 40.3033 196.612 40.56C195.622 40.78 194.522 40.89 193.312 40.89C191.442 40.89 189.939 40.67 188.802 40.23C187.665 39.7533 186.804 39.0567 186.217 38.14C185.63 37.1867 185.245 36.05 185.062 34.73C184.879 33.3733 184.787 31.7967 184.787 30V12.95H193.587V27.305C193.587 28.8083 193.624 30 193.697 30.88C193.807 31.7233 193.99 32.3467 194.247 32.75C194.504 33.1533 194.889 33.41 195.402 33.52C195.915 33.63 196.612 33.685 197.492 33.685C198.445 33.685 199.197 33.5933 199.747 33.41C200.334 33.19 200.755 32.8417 201.012 32.365C201.269 31.8517 201.434 31.1733 201.507 30.33C201.617 29.45 201.672 28.3683 201.672 27.085V12.95H210.527V37.865C210.527 40.3217 210.399 42.4483 210.142 44.245C209.885 46.0783 209.317 47.5817 208.437 48.755C207.557 49.965 206.164 50.8633 204.257 51.45C202.387 52.0367 199.839 52.33 196.612 52.33Z" fill="#F1C40F"/>
</svg>
