<svg width="19136" height="4745" viewBox="0 0 19136 4745" fill="none" xmlns="http://www.w3.org/2000/svg">
<path d="M0.0390741 3715V275H870.039V3015H2210.04V3715H0.0390741ZM3825.7 3755C3585.7 3755 3387.37 3740 3230.7 3710C3074.04 3680 2949.04 3633.33 2855.7 3570C2765.7 3503.33 2697.37 3418.33 2650.7 3315C2607.37 3211.67 2579.04 3088.33 2565.7 2945C2555.7 2801.67 2550.7 2635 2550.7 2445C2550.7 2215 2560.7 2016.67 2580.7 1850C2604.04 1683.33 2654.04 1546.67 2730.7 1440C2807.37 1333.33 2925.7 1255 3085.7 1205C3249.04 1151.67 3469.04 1125 3745.7 1125C3969.04 1125 4150.7 1141.67 4290.7 1175C4430.7 1205 4540.7 1253.33 4620.7 1320C4704.04 1383.33 4762.37 1466.67 4795.7 1570C4832.37 1673.33 4855.7 1798.33 4865.7 1945C4875.7 2088.33 4880.7 2255 4880.7 2445V2640H3345.7C3345.7 2753.33 3350.7 2845 3360.7 2915C3370.7 2981.67 3397.37 3031.67 3440.7 3065C3484.04 3098.33 3550.7 3121.67 3640.7 3135C3730.7 3145 3855.7 3150 4015.7 3150C4079.04 3150 4154.04 3148.33 4240.7 3145C4327.37 3141.67 4417.37 3136.67 4510.7 3130C4607.37 3123.33 4697.37 3116.67 4780.7 3110V3670C4707.37 3686.67 4617.37 3701.67 4510.7 3715C4407.37 3728.33 4295.7 3738.33 4175.7 3745C4055.7 3751.67 3939.04 3755 3825.7 3755ZM4125.7 2305V2225C4125.7 2105 4119.04 2010 4105.7 1940C4095.7 1870 4075.7 1818.33 4045.7 1785C4019.04 1748.33 3980.7 1725 3930.7 1715C3880.7 1705 3817.37 1700 3740.7 1700C3654.04 1700 3584.04 1706.67 3530.7 1720C3480.7 1730 3442.37 1753.33 3415.7 1790C3389.04 1826.67 3370.7 1880 3360.7 1950C3350.7 2020 3345.7 2111.67 3345.7 2225H4210.7L4125.7 2305ZM6038.91 3755C5878.91 3755 5743.91 3730 5633.91 3680C5523.91 3630 5440.57 3548.33 5383.91 3435C5330.57 3321.67 5303.91 3173.33 5303.91 2990C5303.91 2796.67 5325.57 2643.33 5368.91 2530C5415.57 2413.33 5497.24 2330 5613.91 2280C5730.57 2230 5895.57 2205 6108.91 2205C6138.91 2205 6180.57 2206.67 6233.91 2210C6290.57 2210 6353.91 2211.67 6423.91 2215C6493.91 2215 6563.91 2216.67 6633.91 2220C6703.91 2220 6767.24 2221.67 6823.91 2225V2130C6823.91 2033.33 6815.57 1958.33 6798.91 1905C6785.57 1851.67 6757.24 1813.33 6713.91 1790C6673.91 1763.33 6612.24 1748.33 6528.91 1745C6445.57 1738.33 6335.57 1735 6198.91 1735C6122.24 1735 6037.24 1736.67 5943.91 1740C5853.91 1743.33 5763.91 1748.33 5673.91 1755C5587.24 1758.33 5513.91 1763.33 5453.91 1770V1205C5590.57 1181.67 5743.91 1163.33 5913.91 1150C6087.24 1133.33 6268.91 1125 6458.91 1125C6672.24 1125 6848.91 1138.33 6988.91 1165C7132.24 1191.67 7247.24 1233.33 7333.91 1290C7420.57 1343.33 7483.91 1411.67 7523.91 1495C7567.24 1578.33 7595.57 1676.67 7608.91 1790C7622.24 1903.33 7628.91 2031.67 7628.91 2175V3715H6858.91L6838.91 3415H6798.91C6735.57 3515 6662.24 3590 6578.91 3640C6495.57 3690 6407.24 3721.67 6313.91 3735C6220.57 3748.33 6128.91 3755 6038.91 3755ZM6418.91 3185C6478.91 3185 6530.57 3181.67 6573.91 3175C6620.57 3165 6658.91 3150 6688.91 3130C6722.24 3106.67 6748.91 3078.33 6768.91 3045C6785.57 3008.33 6798.91 2963.33 6808.91 2910C6818.91 2856.67 6823.91 2793.33 6823.91 2720V2625H6358.91C6275.57 2625 6212.24 2631.67 6168.91 2645C6125.57 2655 6095.57 2681.67 6078.91 2725C6065.57 2765 6058.91 2828.33 6058.91 2915C6058.91 2988.33 6067.24 3045 6083.91 3085C6100.57 3125 6133.91 3151.67 6183.91 3165C6237.24 3178.33 6315.57 3185 6418.91 3185ZM8250.94 3715V1165H9010.94L9030.94 1600H9075.94C9122.6 1476.67 9180.94 1380 9250.94 1310C9324.27 1240 9412.6 1191.67 9515.94 1165C9619.27 1138.33 9739.27 1125 9875.94 1125V1860C9665.94 1860 9500.94 1886.67 9380.94 1940C9260.94 1993.33 9175.94 2085 9125.94 2215C9075.94 2341.67 9050.94 2520 9050.94 2750V3715H8250.94ZM10301.7 3715V1165H11061.7L11081.7 1475H11126.7C11176.7 1388.33 11238.4 1320 11311.7 1270C11385.1 1216.67 11468.4 1180 11561.7 1160C11655.1 1136.67 11756.7 1125 11866.7 1125C12036.7 1125 12171.7 1146.67 12271.7 1190C12375.1 1233.33 12453.4 1296.67 12506.7 1380C12560.1 1463.33 12595.1 1566.67 12611.7 1690C12631.7 1813.33 12641.7 1956.67 12641.7 2120V3715H11836.7V2365C11836.7 2228.33 11833.4 2121.67 11826.7 2045C11820.1 1965 11805.1 1906.67 11781.7 1870C11758.4 1833.33 11721.7 1811.67 11671.7 1805C11625.1 1795 11561.7 1790 11481.7 1790C11398.4 1790 11330.1 1800 11276.7 1820C11226.7 1836.67 11188.4 1866.67 11161.7 1910C11138.4 1953.33 11121.7 2015 11111.7 2095C11105.1 2171.67 11101.7 2268.33 11101.7 2385V3715H10301.7Z" fill="black"/>
<g clip-path="url(#paint0_diamond_334_302_clip_path)" data-figma-skip-parse="true"><g transform="matrix(-7.35502 2.95455 -8.35503 -20.8477 19440 793.181)"><rect x="0" y="0" width="2538.05" height="424.365" fill="url(#paint0_diamond_334_302)" opacity="1" shape-rendering="crispEdges"/><rect x="0" y="0" width="2538.05" height="424.365" transform="scale(1 -1)" fill="url(#paint0_diamond_334_302)" opacity="1" shape-rendering="crispEdges"/><rect x="0" y="0" width="2538.05" height="424.365" transform="scale(-1 1)" fill="url(#paint0_diamond_334_302)" opacity="1" shape-rendering="crispEdges"/><rect x="0" y="0" width="2538.05" height="424.365" transform="scale(-1)" fill="url(#paint0_diamond_334_302)" opacity="1" shape-rendering="crispEdges"/></g></g><path d="M13245.8 645V-0.000152588H14070.8V645H13245.8ZM13255.8 3715V1165H14065.8V3715H13255.8ZM14946.5 3715V1775H14476.5V1165H14946.5V990C14946.5 796.666 14958.2 640 14981.5 520C15004.8 396.666 15046.5 300 15106.5 230C15166.5 160 15249.8 110 15356.5 79.9997C15466.5 46.6664 15603.2 26.6665 15766.5 19.9999C15933.2 9.99982 16131.5 4.99978 16361.5 4.99978V555C16224.8 555 16114.8 558.333 16031.5 565C15951.5 571.667 15891.5 586.667 15851.5 610C15811.5 630 15784.8 661.667 15771.5 705C15761.5 745 15756.5 803.333 15756.5 880V1165H16361.5V1775H15756.5V3715H14946.5ZM17870.9 4745C17767.5 4745 17660.9 4741.67 17550.9 4735C17440.9 4731.67 17335.9 4725 17235.9 4715C17139.2 4705 17054.2 4695 16980.9 4685V4130C17084.2 4130 17175.9 4130 17255.9 4130C17339.2 4133.33 17414.2 4135 17480.9 4135C17550.9 4135 17615.9 4135 17675.9 4135C17832.5 4135 17955.9 4128.33 18045.9 4115C18135.9 4101.67 18200.9 4076.67 18240.9 4040C18280.9 4003.33 18305.9 3946.67 18315.9 3870C18325.9 3796.67 18330.9 3700 18330.9 3580V3375H18290.9C18244.2 3455 18185.9 3520 18115.9 3570C18045.9 3616.67 17964.2 3651.67 17870.9 3675C17780.9 3695 17680.9 3705 17570.9 3705C17400.9 3705 17264.2 3685 17160.9 3645C17057.5 3601.67 16979.2 3538.33 16925.9 3455C16872.5 3368.33 16837.5 3265 16820.9 3145C16804.2 3021.67 16795.9 2878.33 16795.9 2715V1165H17595.9V2470C17595.9 2606.67 17599.2 2715 17605.9 2795C17615.9 2871.67 17632.5 2928.33 17655.9 2965C17679.2 3001.67 17714.2 3025 17760.9 3035C17807.5 3045 17870.9 3050 17950.9 3050C18037.5 3050 18105.9 3041.67 18155.9 3025C18209.2 3005 18247.5 2973.33 18270.9 2930C18294.2 2883.33 18309.2 2821.67 18315.9 2745C18325.9 2665 18330.9 2566.67 18330.9 2450V1165H19135.9V3430C19135.9 3653.33 19124.2 3846.67 19100.9 4010C19077.5 4176.67 19025.9 4313.33 18945.9 4420C18865.9 4530 18739.2 4611.67 18565.9 4665C18395.9 4718.33 18164.2 4745 17870.9 4745Z" data-figma-gradient-fill="{&#34;type&#34;:&#34;GRADIENT_DIAMOND&#34;,&#34;stops&#34;:[{&#34;color&#34;:{&#34;r&#34;:0.0,&#34;g&#34;:0.16729168593883514,&#34;b&#34;:0.91250008344650269,&#34;a&#34;:1.0},&#34;position&#34;:0.0},{&#34;color&#34;:{&#34;r&#34;:0.95503520965576172,&#34;g&#34;:0.52388328313827515,&#34;b&#34;:0.99423068761825562,&#34;a&#34;:1.0},&#34;position&#34;:0.50},{&#34;color&#34;:{&#34;r&#34;:0.0,&#34;g&#34;:1.0,&#34;b&#34;:0.43333333730697632,&#34;a&#34;:1.0},&#34;position&#34;:1.0}],&#34;stopsVar&#34;:[{&#34;color&#34;:{&#34;r&#34;:0.0,&#34;g&#34;:0.16729168593883514,&#34;b&#34;:0.91250008344650269,&#34;a&#34;:1.0},&#34;position&#34;:0.0},{&#34;color&#34;:{&#34;r&#34;:0.95503520965576172,&#34;g&#34;:0.52388328313827515,&#34;b&#34;:0.99423068761825562,&#34;a&#34;:1.0},&#34;position&#34;:0.50},{&#34;color&#34;:{&#34;r&#34;:0.0,&#34;g&#34;:1.0,&#34;b&#34;:0.43333333730697632,&#34;a&#34;:1.0},&#34;position&#34;:1.0}],&#34;transform&#34;:{&#34;m00&#34;:-14710.04785156250,&#34;m01&#34;:-16710.066406250,&#34;m02&#34;:35150.058593750,&#34;m10&#34;:5909.0917968750,&#34;m11&#34;:-41695.39843750,&#34;m12&#34;:18686.3339843750},&#34;opacity&#34;:1.0,&#34;blendMode&#34;:&#34;NORMAL&#34;,&#34;visible&#34;:true}"/>
<defs>
<clipPath id="paint0_diamond_334_302_clip_path"><path d="M13245.8 645V-0.000152588H14070.8V645H13245.8ZM13255.8 3715V1165H14065.8V3715H13255.8ZM14946.5 3715V1775H14476.5V1165H14946.5V990C14946.5 796.666 14958.2 640 14981.5 520C15004.8 396.666 15046.5 300 15106.5 230C15166.5 160 15249.8 110 15356.5 79.9997C15466.5 46.6664 15603.2 26.6665 15766.5 19.9999C15933.2 9.99982 16131.5 4.99978 16361.5 4.99978V555C16224.8 555 16114.8 558.333 16031.5 565C15951.5 571.667 15891.5 586.667 15851.5 610C15811.5 630 15784.8 661.667 15771.5 705C15761.5 745 15756.5 803.333 15756.5 880V1165H16361.5V1775H15756.5V3715H14946.5ZM17870.9 4745C17767.5 4745 17660.9 4741.67 17550.9 4735C17440.9 4731.67 17335.9 4725 17235.9 4715C17139.2 4705 17054.2 4695 16980.9 4685V4130C17084.2 4130 17175.9 4130 17255.9 4130C17339.2 4133.33 17414.2 4135 17480.9 4135C17550.9 4135 17615.9 4135 17675.9 4135C17832.5 4135 17955.9 4128.33 18045.9 4115C18135.9 4101.67 18200.9 4076.67 18240.9 4040C18280.9 4003.33 18305.9 3946.67 18315.9 3870C18325.9 3796.67 18330.9 3700 18330.9 3580V3375H18290.9C18244.2 3455 18185.9 3520 18115.9 3570C18045.9 3616.67 17964.2 3651.67 17870.9 3675C17780.9 3695 17680.9 3705 17570.9 3705C17400.9 3705 17264.2 3685 17160.9 3645C17057.5 3601.67 16979.2 3538.33 16925.9 3455C16872.5 3368.33 16837.5 3265 16820.9 3145C16804.2 3021.67 16795.9 2878.33 16795.9 2715V1165H17595.9V2470C17595.9 2606.67 17599.2 2715 17605.9 2795C17615.9 2871.67 17632.5 2928.33 17655.9 2965C17679.2 3001.67 17714.2 3025 17760.9 3035C17807.5 3045 17870.9 3050 17950.9 3050C18037.5 3050 18105.9 3041.67 18155.9 3025C18209.2 3005 18247.5 2973.33 18270.9 2930C18294.2 2883.33 18309.2 2821.67 18315.9 2745C18325.9 2665 18330.9 2566.67 18330.9 2450V1165H19135.9V3430C19135.9 3653.33 19124.2 3846.67 19100.9 4010C19077.5 4176.67 19025.9 4313.33 18945.9 4420C18865.9 4530 18739.2 4611.67 18565.9 4665C18395.9 4718.33 18164.2 4745 17870.9 4745Z"/></clipPath><linearGradient id="paint0_diamond_334_302" x1="0" y1="0" x2="500" y2="500" gradientUnits="userSpaceOnUse">
<stop stop-color="#002BE9"/>
<stop offset="0.5" stop-color="#F486FE"/>
<stop offset="1" stop-color="#00FF6F"/>
</linearGradient>
</defs>
</svg>
