<svg width="3828" height="949" viewBox="0 0 3828 949" fill="none" xmlns="http://www.w3.org/2000/svg">
<path d="M0.00781482 743V55H174.008V603H442.008V743H0.00781482ZM765.141 751C717.141 751 677.474 748 646.141 742C614.807 736 589.807 726.667 571.141 714C553.141 700.667 539.474 683.667 530.141 663C521.474 642.333 515.807 617.667 513.141 589C511.141 560.333 510.141 527 510.141 489C510.141 443 512.141 403.333 516.141 370C520.807 336.667 530.807 309.333 546.141 288C561.474 266.667 585.141 251 617.141 241C649.807 230.333 693.807 225 749.141 225C793.807 225 830.141 228.333 858.141 235C886.141 241 908.141 250.667 924.141 264C940.807 276.667 952.474 293.333 959.141 314C966.474 334.667 971.141 359.667 973.141 389C975.141 417.667 976.141 451 976.141 489V528H669.141C669.141 550.667 670.141 569 672.141 583C674.141 596.333 679.474 606.333 688.141 613C696.807 619.667 710.141 624.333 728.141 627C746.141 629 771.141 630 803.141 630C815.807 630 830.807 629.667 848.141 629C865.474 628.333 883.474 627.333 902.141 626C921.474 624.667 939.474 623.333 956.141 622V734C941.474 737.333 923.474 740.333 902.141 743C881.474 745.667 859.141 747.667 835.141 749C811.141 750.333 787.807 751 765.141 751ZM825.141 461V445C825.141 421 823.807 402 821.141 388C819.141 374 815.141 363.667 809.141 357C803.807 349.667 796.141 345 786.141 343C776.141 341 763.474 340 748.141 340C730.807 340 716.807 341.333 706.141 344C696.141 346 688.474 350.667 683.141 358C677.807 365.333 674.141 376 672.141 390C670.141 404 669.141 422.333 669.141 445H842.141L825.141 461ZM1207.78 751C1175.78 751 1148.78 746 1126.78 736C1104.78 726 1088.11 709.667 1076.78 687C1066.11 664.333 1060.78 634.667 1060.78 598C1060.78 559.333 1065.11 528.667 1073.78 506C1083.11 482.667 1099.45 466 1122.78 456C1146.11 446 1179.11 441 1221.78 441C1227.78 441 1236.11 441.333 1246.78 442C1258.11 442 1270.78 442.333 1284.78 443C1298.78 443 1312.78 443.333 1326.78 444C1340.78 444 1353.45 444.333 1364.78 445V426C1364.78 406.667 1363.11 391.667 1359.78 381C1357.11 370.333 1351.45 362.667 1342.78 358C1334.78 352.667 1322.45 349.667 1305.78 349C1289.11 347.667 1267.11 347 1239.78 347C1224.45 347 1207.45 347.333 1188.78 348C1170.78 348.667 1152.78 349.667 1134.78 351C1117.45 351.667 1102.78 352.667 1090.78 354V241C1118.11 236.333 1148.78 232.667 1182.78 230C1217.45 226.667 1253.78 225 1291.78 225C1334.45 225 1369.78 227.667 1397.78 233C1426.45 238.333 1449.45 246.667 1466.78 258C1484.11 268.667 1496.78 282.333 1504.78 299C1513.45 315.667 1519.11 335.333 1521.78 358C1524.45 380.667 1525.78 406.333 1525.78 435V743H1371.78L1367.78 683H1359.78C1347.11 703 1332.45 718 1315.78 728C1299.11 738 1281.45 744.333 1262.78 747C1244.11 749.667 1225.78 751 1207.78 751ZM1283.78 637C1295.78 637 1306.11 636.333 1314.78 635C1324.11 633 1331.78 630 1337.78 626C1344.45 621.333 1349.78 615.667 1353.78 609C1357.11 601.667 1359.78 592.667 1361.78 582C1363.78 571.333 1364.78 558.667 1364.78 544V525H1271.78C1255.11 525 1242.45 526.333 1233.78 529C1225.11 531 1219.11 536.333 1215.78 545C1213.11 553 1211.78 565.667 1211.78 583C1211.78 597.667 1213.45 609 1216.78 617C1220.11 625 1226.78 630.333 1236.78 633C1247.45 635.667 1263.11 637 1283.78 637ZM1650.19 743V233H1802.19L1806.19 320H1815.19C1824.52 295.333 1836.19 276 1850.19 262C1864.85 248 1882.52 238.333 1903.19 233C1923.85 227.667 1947.85 225 1975.19 225V372C1933.19 372 1900.19 377.333 1876.19 388C1852.19 398.667 1835.19 417 1825.19 443C1815.19 468.333 1810.19 504 1810.19 550V743H1650.19ZM2060.34 743V233H2212.34L2216.34 295H2225.34C2235.34 277.667 2247.68 264 2262.34 254C2277.01 243.333 2293.68 236 2312.34 232C2331.01 227.333 2351.34 225 2373.34 225C2407.34 225 2434.34 229.333 2454.34 238C2475.01 246.667 2490.68 259.333 2501.34 276C2512.01 292.667 2519.01 313.333 2522.34 338C2526.34 362.667 2528.34 391.333 2528.34 424V743H2367.34V473C2367.34 445.667 2366.68 424.333 2365.34 409C2364.01 393 2361.01 381.333 2356.34 374C2351.68 366.667 2344.34 362.333 2334.34 361C2325.01 359 2312.34 358 2296.34 358C2279.68 358 2266.01 360 2255.34 364C2245.34 367.333 2237.68 373.333 2232.34 382C2227.68 390.667 2224.34 403 2222.34 419C2221.01 434.333 2220.34 453.667 2220.34 477V743H2060.34Z" fill="black"/>
<path d="M2649.16 129V-3.05176e-05H2814.16V129H2649.16ZM2651.16 743V233H2813.16V743H2651.16ZM2989.3 743V355H2895.3V233H2989.3V198C2989.3 159.333 2991.63 128 2996.3 104C3000.96 79.3333 3009.3 60 3021.3 46C3033.3 32 3049.96 21.9999 3071.3 15.9999C3093.3 9.33328 3120.63 5.33329 3153.3 3.99998C3186.63 1.99996 3226.3 0.999957 3272.3 0.999957V111C3244.96 111 3222.96 111.667 3206.3 113C3190.3 114.333 3178.3 117.333 3170.3 122C3162.3 126 3156.96 132.333 3154.3 141C3152.3 149 3151.3 160.667 3151.3 176V233H3272.3V355H3151.3V743H2989.3ZM3574.17 949C3553.51 949 3532.17 948.333 3510.17 947C3488.17 946.333 3467.17 945 3447.17 943C3427.84 941 3410.84 939 3396.17 937V826C3416.84 826 3435.17 826 3451.17 826C3467.84 826.667 3482.84 827 3496.17 827C3510.17 827 3523.17 827 3535.17 827C3566.51 827 3591.17 825.667 3609.17 823C3627.17 820.333 3640.17 815.333 3648.17 808C3656.17 800.667 3661.17 789.333 3663.17 774C3665.17 759.333 3666.17 740 3666.17 716V675H3658.17C3648.84 691 3637.17 704 3623.17 714C3609.17 723.333 3592.84 730.333 3574.17 735C3556.17 739 3536.17 741 3514.17 741C3480.17 741 3452.84 737 3432.17 729C3411.51 720.333 3395.84 707.667 3385.17 691C3374.51 673.667 3367.51 653 3364.17 629C3360.84 604.333 3359.17 575.667 3359.17 543V233H3519.17V494C3519.17 521.333 3519.84 543 3521.17 559C3523.17 574.333 3526.51 585.667 3531.17 593C3535.84 600.333 3542.84 605 3552.17 607C3561.51 609 3574.17 610 3590.17 610C3607.51 610 3621.17 608.333 3631.17 605C3641.84 601 3649.51 594.667 3654.17 586C3658.84 576.667 3661.84 564.333 3663.17 549C3665.17 533 3666.17 513.333 3666.17 490V233H3827.17V686C3827.17 730.667 3824.84 769.333 3820.17 802C3815.51 835.333 3805.17 862.667 3789.17 884C3773.17 906 3747.84 922.333 3713.17 933C3679.17 943.667 3632.84 949 3574.17 949Z" fill="#002BE9"/>
</svg>
